<?xml version="1.0" encoding="utf-8"?>
<!-- Generator: Adobe Illustrator 22.1.0, SVG Export Plug-In . SVG Version: 6.00 Build 0)  -->
<svg version="1.1" id="ComIcon_x5F_logo" xmlns="http://www.w3.org/2000/svg" xmlns:xlink="http://www.w3.org/1999/xlink" x="0px"
	 y="0px" viewBox="0 0 870.7 585.6" style="enable-background:new 0 0 870.7 585.6;" xml:space="preserve">
<style type="text/css">
	.st0{fill:#E52020;stroke:#000000;stroke-width:5;stroke-miterlimit:10;}
	.st1{display:none;}
	.st2{display:inline;}
	.st3{stroke:#000000;stroke-width:3;stroke-miterlimit:10;}
	.st4{font-family:'BadaBoomBB';}
	.st5{font-size:249.7488px;}
	.st6{font-size:187.3116px;}
	.st7{fill:#EACB11;stroke:#000000;stroke-width:3;stroke-miterlimit:10;}
</style>
<polygon id="bang" class="st0" points="348.4,165.9 372.6,8.3 457.5,182.6 484.8,141.7 495.4,182.6 598.5,88.6 559.1,191.7 
	621.2,169 606.1,203.8 774.4,132.6 689.5,220.5 766.8,211.4 706.1,269 859.2,288.7 674.3,347.9 716.7,382.7 668.7,377.2 
	719.7,432.5 566.2,394.4 588.9,432.5 533.7,409.8 580.3,473 477.2,428.8 485.8,570 413.3,452.7 367.9,528.9 361.8,469.3 
	229.2,578.6 253.7,489.6 218.7,510.5 227.9,481 68.9,565.1 172.1,448.4 91.6,454 137.7,407.3 8.7,380.3 136.4,330.6 73.8,300.5 
	128.5,278.4 49.3,204.7 170.2,236 133.4,186.9 208.3,203.5 133.4,99.7 291.8,182 293.6,120 "/>
<g id="text" class="st1">
	<text transform="matrix(0.9006 -0.1373 1.794000e-02 0.9998 104.5746 432.6406)" class="st2"><tspan x="0" y="0" class="st3 st4 st5">C</tspan><tspan x="98.5" y="0" class="st3 st4 st6">om</tspan><tspan x="306.7" y="0" class="st3 st4 st5">I</tspan><tspan x="361.1" y="0" class="st3 st4 st6">con!</tspan></text>
	<text transform="matrix(0.9006 -0.1373 1.794000e-02 0.9998 110.5079 426.7069)" class="st2"><tspan x="0" y="0" class="st7 st4 st5">C</tspan><tspan x="98.5" y="0" class="st7 st4 st6">om</tspan><tspan x="306.7" y="0" class="st7 st4 st5">I</tspan><tspan x="361.1" y="0" class="st7 st4 st6">con!</tspan></text>
</g>
<g id="text_1_">
	<g>
		<path class="st3" d="M172.7,237.6c15.2-2.3,26.6,5.2,34.1,22.4l-24.3,34c-3.4-3.4-7.4-4.7-11.7-4.1c-7.8,1.2-15.7,9.8-23.8,25.9
			c-6.7,13.2-10.9,25.3-12.8,36.2c-0.9,5.2-1.4,9.8-1.3,13.9c0.2,10.9,3.9,17.8,11.2,20.8c2.4,0.9,4.9,1.2,7.5,0.8
			c7.6-1.2,15.5-8.6,23.6-22.4l7.5,27.9c-14.2,20.1-28.7,31.3-43.7,33.6c-15.2,2.3-26.5-4.9-33.9-21.7c-4.4-9.8-6.8-21.1-7-33.9
			c-0.2-9.4,0.7-19.6,2.8-30.5c4-22.3,12-43.3,24-63.1C139.3,253.6,155.2,240.3,172.7,237.6z"/>
		<path class="st3" d="M249.2,267.2c11.6-1.8,20,4.2,25.1,17.8c2.7,7.1,4.1,15,4.2,23.9c0.2,8.5-0.8,18-3,28.3
			c-3.8,17.7-10.5,34.5-20.2,50.4c-11.9,19.4-24.6,30.2-38.2,32.2c-11.8,1.8-20.2-4.1-25.4-17.8c-2.5-6.7-3.9-14.4-4.1-23.2
			c-0.2-8.7,0.9-18.2,3.1-28.7c3.8-17.8,10.4-34.7,20.1-50.6C222.7,280.1,235.5,269.3,249.2,267.2z M244.1,313.4
			c-6,0.9-12.1,7.3-18.2,19.3c-4.9,9.4-8.3,18.4-10.1,27c-0.9,4.5-1.3,8.6-1.3,12.1c0.1,5,1.3,8.9,3.5,11.8
			c2.6,3.2,6.1,4.4,10.6,3.7c6.1-0.9,11.6-5.4,16.4-13.3c3.9-6.3,6.6-13.5,8.2-21.6c1.9-9.5,2.2-18.6,0.8-27.3
			C252.8,316.5,249.4,312.6,244.1,313.4z"/>
		<path class="st3" d="M260.5,410c14.1-44,24.6-88.1,31.7-132.5l39.2-13.1l-4.5,68l14.3-64.3l37.7-13.1
			c-3.8,40.4-5.4,76.6-4.8,108.6c0.1,6.3,0.2,12.6,0.3,18.8L341,394l4.5-81l-20,92l-18.1,5.5l8.9-114.3l-21.6,103.4L260.5,410z"/>
		<path class="st3" d="M400.1,215l37.6-13.6c-14.1,67.5-23,125.5-26.8,174l-34.7,16.1L400.1,215z"/>
		<path class="st3" d="M480.8,236.8c11.4-1.7,19.9,3.9,25.6,16.8l-18.2,25.5c-2.6-2.5-5.5-3.6-8.8-3.1c-5.8,0.9-11.8,7.4-17.8,19.4
			c-5,9.9-8.2,19-9.6,27.1c-0.7,3.9-1,7.4-1,10.4c0.1,8.2,2.9,13.4,8.4,15.6c1.8,0.7,3.7,0.9,5.6,0.6c5.7-0.9,11.6-6.5,17.7-16.8
			l5.7,21c-10.6,15.1-21.5,23.5-32.8,25.2c-11.4,1.7-19.9-3.7-25.4-16.3c-3.3-7.3-5.1-15.8-5.2-25.4c-0.1-7.1,0.6-14.7,2.1-22.9
			c3-16.7,9-32.5,18-47.3C455.8,248.8,467.8,238.8,480.8,236.8z"/>
		<path class="st3" d="M552.2,221c11.6-1.8,20,4.2,25.1,17.8c2.7,7.1,4.1,15,4.2,23.9c0.2,8.5-0.8,18-3,28.3
			c-3.8,17.7-10.5,34.5-20.2,50.4c-11.9,19.4-24.6,30.2-38.2,32.2c-11.8,1.8-20.2-4.1-25.4-17.8c-2.5-6.7-3.9-14.4-4.1-23.2
			c-0.2-8.7,0.9-18.2,3.1-28.7c3.8-17.8,10.4-34.7,20.1-50.6C525.7,233.9,538.5,223.1,552.2,221z M547.1,267.3
			c-6,0.9-12.1,7.3-18.2,19.3c-4.9,9.4-8.3,18.4-10.1,27c-0.9,4.5-1.3,8.6-1.3,12.1c0.1,5,1.3,8.9,3.5,11.8
			c2.6,3.2,6.1,4.4,10.6,3.7c6.1-0.9,11.6-5.4,16.4-13.3c3.9-6.3,6.6-13.5,8.2-21.6c1.9-9.5,2.2-18.6,0.8-27.3
			C555.8,270.3,552.4,266.5,547.1,267.3z"/>
		<path class="st3" d="M590.7,229.6l28.4-10.7c-0.2,3.8-0.2,9.2,0,16.1c0.3,16.6,1.1,31.1,2.3,43.5c0.7,7.1,1.6,12.8,2.8,17l9.9-73
			l28.2-10.2c-10.5,50.6-17.3,94.1-20.1,130.5l-25.9,12c-0.1-0.2-0.9-2.3-2.3-6.1L605,323c-1.5-4.2-2.4-6.8-2.6-8
			c-2,14.7-3.6,29-4.7,42.7l-26.2,12.8L590.7,229.6z"/>
		<path class="st3" d="M669.8,316.6c3.8-1.2,7.2-1.1,10.2,0.3c3.5,1.4,5.4,4.2,5.4,8.3c0.1,5.6-2.5,11.1-7.8,16.6
			c-4.1,4.3-8.6,7.2-13.6,8.7c-3.9,1.2-7.4,1.2-10.2,0.1c-3.4-1.4-5.2-4.2-5.3-8.4c-0.1-5.6,2.4-11.2,7.5-16.7
			C660.1,321.1,664.7,318.1,669.8,316.6z M686.3,200l34.5,1.2c-8.8,19.6-15.2,34.8-19.3,45.7c-5.6,14.9-10.5,30.9-14.7,47.9
			l-22.9,2.4L686.3,200z"/>
	</g>
	<g>
		<path class="st7" d="M178.6,231.7c15.2-2.3,26.6,5.2,34.1,22.4l-24.3,34c-3.4-3.4-7.4-4.7-11.7-4.1c-7.8,1.2-15.7,9.8-23.8,25.9
			c-6.7,13.2-10.9,25.3-12.8,36.2c-0.9,5.2-1.4,9.8-1.3,13.9c0.2,10.9,3.9,17.8,11.2,20.8c2.4,0.9,4.9,1.2,7.5,0.8
			c7.6-1.2,15.5-8.6,23.6-22.4l7.5,27.9c-14.2,20.1-28.7,31.3-43.7,33.6c-15.2,2.3-26.5-4.9-33.9-21.7c-4.4-9.8-6.8-21.1-7-33.9
			c-0.2-9.4,0.8-19.6,2.8-30.5c4-22.3,12-43.3,24-63.1C145.3,247.6,161.2,234.4,178.6,231.7z"/>
		<path class="st7" d="M255.2,261.2c11.6-1.8,20,4.2,25.1,17.8c2.7,7.1,4.1,15,4.2,23.9c0.2,8.5-0.8,18-3,28.3
			c-3.8,17.7-10.5,34.5-20.2,50.4c-11.9,19.4-24.6,30.2-38.2,32.2c-11.8,1.8-20.2-4.1-25.4-17.8c-2.5-6.7-3.9-14.4-4.1-23.2
			c-0.2-8.7,0.9-18.2,3.1-28.7c3.8-17.8,10.4-34.7,20.1-50.6C228.6,274.2,241.4,263.3,255.2,261.2z M250,307.5
			c-6,0.9-12.1,7.3-18.2,19.3c-4.9,9.4-8.3,18.4-10.1,27c-0.9,4.5-1.3,8.6-1.3,12.1c0.1,5,1.3,8.9,3.5,11.8
			c2.6,3.2,6.1,4.4,10.6,3.7c6.1-0.9,11.6-5.4,16.4-13.3c3.9-6.3,6.6-13.5,8.2-21.6c1.9-9.5,2.2-18.6,0.8-27.3
			C258.7,310.6,255.3,306.7,250,307.5z"/>
		<path class="st7" d="M266.5,404c14.1-44,24.6-88.1,31.7-132.5l39.2-13.1l-4.5,68l14.3-64.3l37.7-13.1
			c-3.8,40.4-5.4,76.6-4.8,108.6c0.1,6.3,0.2,12.6,0.3,18.8L347,388.1l4.5-81l-20,92l-18.1,5.5l8.9-114.3l-21.6,103.4L266.5,404z"/>
		<path class="st7" d="M406,209l37.6-13.6c-14.1,67.5-23,125.5-26.8,174l-34.7,16.1L406,209z"/>
		<path class="st7" d="M486.8,230.9c11.4-1.7,19.9,3.9,25.6,16.8l-18.2,25.5c-2.6-2.5-5.5-3.6-8.8-3.1c-5.8,0.9-11.8,7.4-17.8,19.4
			c-5,9.9-8.2,19-9.6,27.1c-0.7,3.9-1,7.4-1,10.4c0.1,8.2,2.9,13.4,8.4,15.6c1.8,0.7,3.7,0.9,5.6,0.6c5.7-0.9,11.6-6.5,17.7-16.8
			l5.7,21c-10.6,15.1-21.5,23.5-32.8,25.2c-11.4,1.7-19.9-3.7-25.4-16.3c-3.3-7.3-5.1-15.8-5.2-25.4c-0.1-7.1,0.6-14.7,2.1-22.9
			c3-16.7,9-32.5,18-47.3C461.8,242.8,473.7,232.9,486.8,230.9z"/>
		<path class="st7" d="M558.2,215.1c11.6-1.8,20,4.2,25.1,17.8c2.7,7.1,4.1,15,4.2,23.9c0.2,8.5-0.8,18-3,28.3
			c-3.8,17.7-10.5,34.5-20.2,50.4c-11.9,19.4-24.6,30.2-38.2,32.2c-11.8,1.8-20.2-4.1-25.4-17.8c-2.5-6.7-3.9-14.4-4.1-23.2
			c-0.2-8.7,0.9-18.2,3.1-28.7c3.8-17.8,10.4-34.7,20.1-50.6C531.6,228,544.4,217.2,558.2,215.1z M553.1,261.3
			c-6,0.9-12.1,7.3-18.2,19.3c-4.9,9.4-8.3,18.4-10.1,27c-0.9,4.5-1.3,8.6-1.3,12.1c0.1,5,1.3,8.9,3.5,11.8
			c2.6,3.2,6.1,4.4,10.6,3.7c6.1-0.9,11.6-5.4,16.4-13.3c3.9-6.3,6.6-13.5,8.2-21.6c1.9-9.5,2.2-18.6,0.8-27.3
			C561.7,264.4,558.3,260.5,553.1,261.3z"/>
		<path class="st7" d="M596.7,223.7l28.4-10.7c-0.2,3.8-0.2,9.2,0,16.1c0.3,16.6,1.1,31.1,2.3,43.5c0.7,7.1,1.6,12.8,2.8,17l9.9-73
			l28.2-10.2c-10.5,50.6-17.3,94.1-20.1,130.5l-25.9,12c-0.1-0.2-0.9-2.3-2.3-6.1l-9.1-25.8c-1.5-4.2-2.4-6.8-2.6-8
			c-2,14.7-3.6,29-4.7,42.7l-26.2,12.8L596.7,223.7z"/>
		<path class="st7" d="M675.7,310.7c3.8-1.2,7.2-1.1,10.2,0.3c3.5,1.4,5.4,4.2,5.4,8.3c0.1,5.6-2.5,11.1-7.8,16.6
			c-4.1,4.3-8.6,7.2-13.6,8.7c-3.9,1.2-7.4,1.2-10.2,0.1c-3.4-1.4-5.2-4.2-5.3-8.4c-0.1-5.6,2.4-11.2,7.5-16.7
			C666.1,315.1,670.7,312.2,675.7,310.7z M692.3,194.1l34.5,1.2c-8.8,19.6-15.2,34.8-19.3,45.7c-5.6,14.9-10.5,30.9-14.7,47.9
			l-22.9,2.4L692.3,194.1z"/>
	</g>
</g>
</svg>
