<?xml version="1.0" encoding="utf-8"?>
<!-- Generator: Adobe Illustrator 22.1.0, SVG Export Plug-In . SVG Version: 6.00 Build 0)  -->
<svg version="1.1" id="ComIcon_x5F_logo" xmlns="http://www.w3.org/2000/svg" xmlns:xlink="http://www.w3.org/1999/xlink" x="0px"
	 y="0px" viewBox="0 0 870.7 585.6" style="enable-background:new 0 0 870.7 585.6;" xml:space="preserve">
<style type="text/css">
	.st0{fill:#E52020;stroke:#000000;stroke-width:5;stroke-miterlimit:10;}
	.st1{stroke:#000000;stroke-width:3;stroke-miterlimit:10;}
	.st2{font-family:'BadaBoomBB';}
	.st3{font-size:249.7488px;}
	.st4{font-size:187.3116px;}
	.st5{fill:#EACB11;stroke:#000000;stroke-width:3;stroke-miterlimit:10;}
</style>
<polygon id="bang" class="st0" points="348.4,165.9 372.6,8.3 457.5,182.6 484.8,141.7 495.4,182.6 598.5,88.6 559.1,191.7 
	621.2,169 606.1,203.8 774.4,132.6 689.5,220.5 766.8,211.4 706.1,269 859.2,288.7 674.3,347.9 716.7,382.7 668.7,377.2 
	719.7,432.5 566.2,394.4 588.9,432.5 533.7,409.8 580.3,473 477.2,428.8 485.8,570 413.3,452.7 367.9,528.9 361.8,469.3 
	229.2,578.6 253.7,489.6 218.7,510.5 227.9,481 68.9,565.1 172.1,448.4 91.6,454 137.7,407.3 8.7,380.3 136.4,330.6 73.8,300.5 
	128.5,278.4 49.3,204.7 170.2,236 133.4,186.9 208.3,203.5 133.4,99.7 291.8,182 293.6,120 "/>
<g id="text">
	<text transform="matrix(0.9006 -0.1373 1.793879e-02 0.9998 104.5289 432.6313)"><tspan x="0" y="0" class="st1 st2 st3">C</tspan><tspan x="98.5" y="0" class="st1 st2 st4">om</tspan><tspan x="306.7" y="0" class="st1 st2 st3">I</tspan><tspan x="361.1" y="0" class="st1 st2 st4">con!</tspan></text>
	<text transform="matrix(0.9006 -0.1373 1.793879e-02 0.9998 110.4621 426.6976)"><tspan x="0" y="0" class="st5 st2 st3">C</tspan><tspan x="98.5" y="0" class="st5 st2 st4">om</tspan><tspan x="306.7" y="0" class="st5 st2 st3">I</tspan><tspan x="361.1" y="0" class="st5 st2 st4">con!</tspan></text>
</g>
</svg>
