<?xml version="1.0" encoding="utf-8"?>
<!-- Generator: Adobe Illustrator 22.1.0, SVG Export Plug-In . SVG Version: 6.00 Build 0)  -->
<svg version="1.1" id="daredevil_icon" xmlns="http://www.w3.org/2000/svg" xmlns:xlink="http://www.w3.org/1999/xlink" x="0px"
	 y="0px" viewBox="0 0 1000 1000" style="enable-background:new 0 0 1000 1000;" xml:space="preserve">
<style type="text/css">
	.st0{fill:#821821;}
	.st1{opacity:0.15;fill:#FFFFFF;}

	#daredevil_icon:hover{
	cursor: pointer;
	}
</style>
<g id="circles">
	<circle id="outer_circle" class="st0" cx="500" cy="500.5" r="500"/>
	<circle id="inner_circle" cx="500" cy="500.5" r="450"/>
</g>
<path id="daredevil" class="st0" d="M838.3,587.5c0-225.1-179.9-228.9-179.9-228.9c-34.6-170.2-202.1-163.4-202.1-163.4H209.4
	l66.4,33.1v434.4l-66.4,32.4h238.1v128l-64,30.9h253.7c20.6,0,41.1-2.7,60.8-8.7C860.8,796.3,838.3,587.5,838.3,587.5z M525.1,644.2
	V387.8h60.4C585.5,387.8,601.4,604.7,525.1,644.2z M450,664h-97.1V226.3h102.8c0,0,114.6-3.4,125.4,129.3H386.7l63.2,31.1V664z
	 M757.7,600.7c-5.9,176.9-44.7,207.6-105.3,219.6c-15.2,3-30.7,4.4-46.2,4.4h-81.2V684.8c0,0,172.7-39,136-297
	C661.2,387.8,764.5,398.6,757.7,600.7z"/>
<path id="glare" class="st1" d="M146.4,854.1c-195.3-195.3-195.3-511.8,0-707.1s511.8-195.3,707.1,0
	C682.1,446.2,441.2,676.8,146.4,854.1z"/>
</svg>
