<?xml version="1.0" encoding="utf-8"?>
<!-- Generator: Adobe Illustrator 22.1.0, SVG Export Plug-In . SVG Version: 6.00 Build 0)  -->
<svg version="1.1" id="dr_x5F_strange_x5F_icon" xmlns="http://www.w3.org/2000/svg" xmlns:xlink="http://www.w3.org/1999/xlink"
	 x="0px" y="0px" viewBox="0 0 1000 1000" style="enable-background:new 0 0 1000 1000;" xml:space="preserve">
<style type="text/css">
	.st0{fill:#BC1919;}
	.st1{fill:#293FA8;}
	.st2{fill:#DDB614;}
	.st3{opacity:0.15;fill:#FFFFFF;}
</style>
<g id="circles">
	<circle id="outer_x5F_circle" class="st0" cx="500" cy="500.5" r="500"/>
	<circle id="inner_x5F_circle" class="st1" cx="500" cy="500.5" r="450"/>
</g>
<path id="sanctum_x5F_sanctorum" class="st2" d="M500.5,105.1c-218.4,0-395.4,177-395.4,395.4s177,395.4,395.4,395.4
	s395.4-177,395.4-395.4S718.9,105.1,500.5,105.1z M500,852.5c-194.7,0-352.5-157.8-352.5-352.5S305.3,147.5,500,147.5
	S852.5,305.3,852.5,500S694.7,852.5,500,852.5z M833.6,617.2c11.7-33,18.6-68.3,20-104.9C708.5,488.1,563,530,563,530
	c-11.5-20.5-44.5-123.5-44.5-123.5C659,340,747.8,248.2,747.8,248.2c-20.3-19.9-43.1-37.4-67.7-52C638.2,271.4,506,358,506,358
	c-15-23-38.2-209.3-38.2-209.3c-9.4,0.9-18.8,2.1-28,3.7c3.3,83.4,31.9,225.3,31.9,225.3c-20,14-107,52.3-107,52.3
	c-19.7-80-76.8-211.7-76.8-211.7c-7.7,5.8-15.1,11.9-22.2,18.2c29.1,63.6,65.9,205.9,65.9,205.9c-77,29.5-184.3,53.7-184.3,53.7
	c0,1.4,0,2.9,0,4.3c0,5.4,0.1,10.7,0.4,16c82.6-8.5,191.9-41.5,191.9-41.5C350,512.5,358,596,358,596c-65.5,23-162.5,83-162.5,83
	c3.6,6.2,7.4,12.2,11.4,18.2c52-30.3,153.5-66.7,153.5-66.7c5.5,105-22.6,183.7-22.6,183.7c19.7,10.3,40.6,18.7,62.3,25.1
	c22.5-129.6,3.5-223.7,3.5-223.7C456.3,598.3,529,588,529,588c70,189,120.4,232.7,120.4,232.7c26.8-12.6,51.8-28.4,74.4-47
	c-55.9-58.3-102.4-121.7-136.1-192C682.7,574.7,763.1,588.9,833.6,617.2z M398.3,579c0,0-14.7-82.7-24-115.3
	c0,0,52.7-14.7,107.3-40.7c0,0,23.3,94.7,32,118.7C513.7,541.7,442.3,561,398.3,579z"/>
<path id="glare_1_" class="st3" d="M146.4,854.1c-195.3-195.3-195.3-511.8,0-707.1s511.8-195.3,707.1,0
	C682.1,446.2,441.2,676.8,146.4,854.1z"/>
</svg>
