<?xml version="1.0" encoding="utf-8"?>
<!-- Generator: Adobe Illustrator 22.1.0, SVG Export Plug-In . SVG Version: 6.00 Build 0)  -->
<svg version="1.1" id="iron_x5F_fist_x5F_icon" xmlns="http://www.w3.org/2000/svg" xmlns:xlink="http://www.w3.org/1999/xlink"
	 x="0px" y="0px" viewBox="0 0 1000 1000" style="enable-background:new 0 0 1000 1000;" xml:space="preserve">
<style type="text/css">
	.st0{fill:#FFDF1B;stroke:#FFDF1B;stroke-miterlimit:10;}
	.st1{fill:#01893D;stroke:#FFDF1B;stroke-miterlimit:10;}
	.st2{opacity:0.15;fill:#FFFFFF;}
</style>
<g id="circles">
	<circle id="outer_x5F_circle" class="st0" cx="500" cy="500.5" r="500"/>
	<circle id="inner_x5F_circle" class="st1" cx="500" cy="500.5" r="450"/>
</g>
<path id="dragon" d="M448.1,192.2c3.2-6.8-7.2-40.7-7.8-11.9c-0.8,32.2-28.8,30.3-28.8,30.3s-10.7,22.2-18.9,46
	c-8.2,23.8-3.3,83,9,34.5c12.3-48.5,64.1-89.6,64.1-89.6c70.7-51,69.9,5.8,69.9,5.8c5.8,148-129.7,274.3-245.8,217.9
	c-117.6-57.2-79.1-190.7-79.1-190.7C141.7,317.7,150.9,433,150.9,433c23.4,312,268.4,331.3,268.4,331.3
	c-156.6-67.8-217.1-206-146.3-244.6s96.2,63.7,96.2,63.7c0.4-11.9,3.3-71.1,44.8-107.3c41.5-36.2,23,7.4,23,7.4
	c-41.9,144.3,8.2,258.2,23.4,273s16.9,37.8,16.9,37.8c37.8,134,94.5,127.8,94.5,127.8c-63.7-55.1-74.4-125-74.4-125
	c15.9,7.6,33.1,8.9,40,8.8c1.8,0,3.7-0.2,5.5-0.4c28.2-3.8,42.8-85.2-10.3-135.2c-55.9-52.7-62.3,63.5-62.3,63.5
	c-45-156-2.5-260.2,43.8-257.1c46.2,3.1,56.7,99.9,56.7,99.9c45-83.2,106.7-47.5,106.7-47.5c114.1,69.7,3.1,193.6,3.1,193.6
	c63.5-17.9,122.7-114.7,122.7-114.7c86.6-153.8,29.1-293.6,20.7-312.4c-0.9-2-1.8-4.1-2.7-6.2C711.7,34,445.2,82.4,445.2,82.4
	c237.6,32.1,252.4,160.3,252.4,160.3C726.4,402.2,601,426.3,601,426.3c-125.2,20.3-75.8-58.6-75.8-58.6
	c46.9-98,49.8-131.3,48.6-141.5C586.1,159.2,541.1,117.7,448.1,192.2z M490.4,734.9c2.5-24,10.2-41.9,13.9-49.6
	c0,0,47.8,16,46.9,84.8c0,0,3.4,41.6-36.1,13.6l-19.1-16C495.9,767.6,487.9,758.9,490.4,734.9z"/>
<path id="glare_1_" class="st2" d="M146.4,854.1c-195.3-195.3-195.3-511.8,0-707.1s511.8-195.3,707.1,0
	C682.1,446.2,441.2,676.8,146.4,854.1z"/>
</svg>
