<?xml version="1.0" encoding="utf-8"?>
<!-- Generator: Adobe Illustrator 22.1.0, SVG Export Plug-In . SVG Version: 6.00 Build 0)  -->
<svg version="1.1" id="iron_x5F_man_x5F_icon" xmlns="http://www.w3.org/2000/svg" xmlns:xlink="http://www.w3.org/1999/xlink"
	 x="0px" y="0px" viewBox="0 0 1000 1000" style="enable-background:new 0 0 1000 1000;" xml:space="preserve">
<style type="text/css">
	.st0{fill:#DDAE3A;}
	.st1{fill:#AD1717;}
	.st2{fill:#3BC5DB;}
	.st3{opacity:0.15;fill:#FFFFFF;}
</style>
<g id="circles">
	<circle id="outer_x5F_circle" class="st0" cx="500" cy="500.5" r="500"/>
	<circle id="inner_x5F_circle" class="st1" cx="500" cy="500.5" r="450"/>
</g>
<path id="arc" class="st2" d="M498.5,282.9h345.2L694,372H498.5V282.9z M498.5,282.9H153.3L303.1,372h195.5V282.9z M686.6,597.9
	L510.7,895l-0.3-174.3L610,552.5L686.6,597.9z M686.6,597.9L856,299.7l-146.4,84.6L610,552.5L686.6,597.9z M387.2,552.5l99.6,168.2
	L486.5,895l-175.9-297L387.2,552.5z M387.2,552.5l-99.6-168.2l-146.4-84.6l169.4,298.2L387.2,552.5z M650.1,406.7H350.6l149.8,259.4
	L650.1,406.7z"/>
<path id="glare_1_" class="st3" d="M146.4,854.1c-195.3-195.3-195.3-511.8,0-707.1s511.8-195.3,707.1,0
	C682.1,446.2,441.2,676.8,146.4,854.1z"/>
</svg>
