<?xml version="1.0" encoding="utf-8"?>
<!-- Generator: Adobe Illustrator 22.1.0, SVG Export Plug-In . SVG Version: 6.00 Build 0)  -->
<svg version="1.1" id="punisher_icon" xmlns="http://www.w3.org/2000/svg" xmlns:xlink="http://www.w3.org/1999/xlink" x="0px"
	 y="0px" viewBox="0 0 1000 1000" style="enable-background:new 0 0 1000 1000;" xml:space="preserve">
<style type="text/css">
	.st0{fill:#BC1919;}
	.st1{fill:#FFFFFF;}
	.st2{opacity:0.15;fill:#FFFFFF;}

	#punisher_icon:hover{
	cursor: pointer;
	}
</style>
<g id="circles">
	<circle id="outer_circle" class="st0" cx="500" cy="500.5" r="500"/>
	<circle id="inner_circle" cx="500" cy="500.5" r="450"/>
</g>
<path id="skull" class="st1" d="M779,421c18-115-8-155-88-228s-192-65-192-65c-113-1.3-158.8,33.5-178.8,54.3S261,231,261,231
	s-48,24-50,136.7s56.8,168.7,56.8,168.7c-28.8,7.1-22.8,9.8-21.1,21.3s-2.3,24.7-2.3,24.7c-6.4,6-3.7,12.2-1.6,15.4
	c2.9,4.3,5.6,8.7,8.2,13.2c9.1,15.5,17.8,27.7,33.4,17.8c19.3-12.3,35,1.7,35,1.7c23.3,12,24.7-12.3,24.7-12.3
	c-28.7,5.7-29.3-4.7-29.3-4.7s8.7-7,30.7-23S396,579,396,579c-2.7,34.7,6,43,6,43c-17.3,0-10.7,7-10.7,7s9,16.3,11.7,31.3
	s5,77,5,145.3s38,60,38,60c5.3-45,2-181,2-181c-11-38,6-41.3,6-41.3c-1.7,46.3,6.7,226.7,6.7,226.7c13.3,3.3,30.3,2.3,30.3,2.3
	c11.4-77.7,9-194,9-194c-12.7-35.3,7.7-35,7.7-35c2.7,22-3.7,94.7-3.7,155s9,76,9,76c29.3,2,27-40.3,27-40.3l0.7-51.7
	c6-49.3,1.3-124.6,1.1-134.1s6.5-11.3,6.5-11.3c17.5-7.3,20.8,7,20.8,7c-13.3,0-13,7.3-13,7.3c-11.7,103.3-5.7,219.3-5.7,219.3
	c23.7-1.3,37.7-5.3,37.7-5.3c13.3-99.7,12.3-189,12.3-189c31.3-40.7,18-88,18-88c39.7-17.7,68.3-13.3,74.3,2s-2,19.3-2,19.3
	c-26,11.7,10,19.7,10,19.7c47.7-6.3,68-61,55.7-72.7c-12.3-11.7-5-19-2.7-36C756,503.7,779,421,779,421z M368.3,505
	c0,0-54.7-9.3-67-12c-12.3-2.7-58.7-18.3-41.3-114.3c0,0,66.7,20.7,124.3,62c0,0,59.7,37.7,92.3,43C476.7,483.7,456.7,515,368.3,505
	z M488,561.3c-13.3,28.8-15.5,30.3-15.5,30.3S462,588,452.8,561c0,0,7.5,0,21.2-31.3c0,0,8.9-21.6,18.4-27.1
	C492.4,502.7,501.3,532.5,488,561.3z M522.5,595.3c0,0,2.8-23.3-17.8-43.3c0,0,0.3-26.3,2-48c0,0,11.8,4,20.5,32.5
	c0,0,5,17.5,16.3,24.8C543.5,561.3,537,593,522.5,595.3z M679,496c0,0-29.5,3.5-61,12s-78.3-12.4-98-21.5c0,0,22.5,3.1,113-59.2
	c0,0,57-42.3,108-45.3C741,382,765,488.5,679,496z"/>
<path id="glare" class="st2" d="M146.4,854.1c-195.3-195.3-195.3-511.8,0-707.1s511.8-195.3,707.1,0
	C682.1,446.2,441.2,676.8,146.4,854.1z"/>
</svg>
