<?xml version="1.0" encoding="utf-8"?>
<!-- Generator: Adobe Illustrator 22.1.0, SVG Export Plug-In . SVG Version: 6.00 Build 0)  -->
<svg version="1.1" id="spider-man_x5F_icon" xmlns="http://www.w3.org/2000/svg" xmlns:xlink="http://www.w3.org/1999/xlink"
	 x="0px" y="0px" viewBox="0 0 1000 1000" style="enable-background:new 0 0 1000 1000;" xml:space="preserve">
<style type="text/css">
	.st0{fill:#124380;}
	.st1{fill:#E72121;}
	.st2{opacity:0.15;fill:#FFFFFF;}
</style>
<g id="circles">
	<circle id="outer_x5F_circle" class="st0" cx="500" cy="500.5" r="500"/>
	<circle id="inner_x5F_circle" class="st1" cx="500" cy="500.5" r="450"/>
</g>
<path id="spider" d="M499.4,280.4c-0.3,0-0.7,0-1.1,0v-0.1C498.3,280.3,498.7,280.3,499.4,280.4z M765.7,489.7L579,323.7l-33.7,4.2
	l36.1-17.2L751.7,445c15.9-175.5-45.8-275.9-46.7-277.3c24.7,48.7,19.3,224.6,19.3,224.6L581,291.7l-36,20.7l36.7-38L694.3,345
	c-13.2-150.8-73-226.2-74-227.3c39.3,97.3,43.3,188,43.3,188l-83.8-53.8l-44.5,45.5c5.8-17.5,3.2-21.2,3.2-21.2
	c-11.8-20-27.7-27.6-28.2-27.8c17,22,5.3,36,5.3,36c-3.5-3-11.3-3.7-15.2-3.9c-0.4,0-0.8,0-1.1,0s-0.7,0-1.1,0
	c-3.8,0.2-11.7,1-15.2,3.9c0,0-11.7-14,5.3-36c-0.5,0.2-16.3,7.8-28.2,27.8c0,0-2.7,3.7,3.2,21.2L419,251.8l-83.8,53.8
	c0,0,4-90.7,43.3-188c-0.9,1.2-60.8,76.5-74,227.3l112.7-70.7l36.7,38l-36-20.7L274.5,392.3c0,0-5.3-176,19.3-224.6
	c-0.9,1.4-62.5,101.9-46.7,277.3l170.3-134.3l36.1,17.2l-33.7-4.2l-186.7,166c0,0,12.7,195.3,102,300.6c-1.1-2.3-78.5-168.1-60-284
	l148.7-166h30.7l-22.9,10.4L316.3,533c0,0,15.5,199.3,109.5,352.7c0,0-81.2-208.7-71-344.2l86.5-178.8l16.5-8.8l5.8,14l-22,35.5
	c0,0-2.3,74.5,40.3,186.5c0,0,6.3-11.3,17.6-12h0c11.3,0.7,17.6,12,17.6,12c42.5-112,40.3-186.5,40.3-186.5l-22-35.5l5.8-14
	l16.5,8.8L644,541.5c10.2,135.5-71,344.2-71,344.2C667,732.3,682.5,533,682.5,533L567.3,350.8l-22.9-10.4H575l148.7,166
	c18.5,115.9-58.9,281.7-60,284C753,685,765.7,489.7,765.7,489.7z M499.4,280.4c0.3,0,0.7,0,1.1,0v-0.1
	C500.5,280.3,500.1,280.3,499.4,280.4z"/>
<path id="glare_1_" class="st2" d="M146.4,854.1c-195.3-195.3-195.3-511.8,0-707.1s511.8-195.3,707.1,0
	C682.1,446.2,441.2,676.8,146.4,854.1z"/>
</svg>
