<?xml version="1.0" encoding="utf-8"?>
<!-- Generator: Adobe Illustrator 22.1.0, SVG Export Plug-In . SVG Version: 6.00 Build 0)  -->
<svg version="1.1" id="thor_icon" xmlns="http://www.w3.org/2000/svg" xmlns:xlink="http://www.w3.org/1999/xlink" x="0px"
	 y="0px" viewBox="0 0 1000 1000" style="enable-background:new 0 0 1000 1000;" xml:space="preserve">
<style type="text/css">
	.st0{fill:#A81818;}
	.st1{fill:#145493;}
	.st2{fill:#7F7E7E;}
	.st3{fill:#D3AF1A;}
	.st4{fill:#99624A;}
	.st5{opacity:0.15;fill:#FFFFFF;}

	#thor_icon:hover{
	cursor: pointer;
	}
</style>
<g id="circles">
	<circle id="outer_circle" class="st0" cx="500" cy="500.5" r="500"/>
	<circle id="inner_circle" class="st1" cx="500" cy="500.5" r="450"/>
</g>
<g id="hammer">
	<g id="hammer_head">
		<polygon class="st2" points="198.1,353.1 447.3,171.8 586.7,363.2 489.4,435.6 507.8,461 499.5,501.1 457.7,498.4 438.8,471.9 
			339.1,545 		"/>
		<polygon class="st2" points="460.6,161.3 508.7,153 623.5,311.2 601.1,353.8 		"/>
		<polygon class="st2" points="325.9,555 277.9,563.3 163,405.1 185.4,362.5 		"/>
	</g>
	<g id="handle_decor">
		<polygon class="st3" points="514.6,471.6 530.9,492.9 522.8,534.8 481.6,531.2 465.9,507.7 506,511.9 		"/>
		<polygon class="st3" points="539,504.3 555.3,525.6 547.1,567.5 506,563.9 490.2,540.4 530.3,544.5 		"/>
	</g>
	<polygon id="handle" class="st4" points="562.3,535.9 743.2,784.7 694.5,822.1 513,574 552.5,575.1 	"/>
</g>
<path id="glare" class="st5" d="M146.4,854.1c-195.3-195.3-195.3-511.8,0-707.1s511.8-195.3,707.1,0
	C682.1,446.2,441.2,676.8,146.4,854.1z"/>
</svg>
