<?xml version="1.0" encoding="utf-8"?>
<!-- Generator: Adobe Illustrator 22.1.0, SVG Export Plug-In . SVG Version: 6.00 Build 0)  -->
<svg version="1.1" id="wolverine_icon" xmlns="http://www.w3.org/2000/svg" xmlns:xlink="http://www.w3.org/1999/xlink" x="0px"
	 y="0px" viewBox="0 0 1000 1000" style="enable-background:new 0 0 1000 1000;" xml:space="preserve">
<style type="text/css">
	.st0{fill:#2D24A0;}
	.st1{fill:#E5C31A;}
	.st2{opacity:0.15;fill:#FFFFFF;}

	#wolverine_icon:hover{
	cursor: pointer;
	}
</style>
<g id="circles">
	<path id="outer_circle" class="st0" d="M500,1000.5c-276.1,0-500-223.9-500-500s223.9-500,500-500s500,223.9,500,500
		S776.1,1000.5,500,1000.5z"/>
	<circle id="inner_circle" class="st1" cx="500" cy="500.5" r="450"/>
</g>
<path id="mask" d="M794.3,234.3c-9.7,65.8-31.8,160.7-96.8,186.2S582,503,582,503c-61.5,66.5-61.5,95.5-51.5,113s7,41.5-3,48.5
	s-8,14-8,14c-3.5,16-7.2,76.5-7.2,76.5c8.7,0.7,48-45.3,48-45.3c56-5.3,77.3-28,77.3-28c19.3,102-11.2,172.4-11.2,172.4
	c41.5-12,54-46.2,80-95.1c3.4-6.4-0.4-35-0.9-40.3c-1.2-11.5-0.3-2.1-0.8-13.7l-1.1-24.1c84-56.7,90.3-66.5,98.3-163.8
	S794.3,234.3,794.3,234.3z M626.3,599.3c0,0-63.3,19.3-70,18.7c20.5-19,51.2-39.8,82.7-59.3C639,558.7,638.3,580.3,626.3,599.3z
	 M196,517.2c8,97.3,14.3,107.2,98.3,163.8l-1.1,24.1c-0.5,11.6,0.3,2.1-0.8,13.7c-0.5,5.2-4.3,33.9-0.9,40.3
	c26,48.8,38.5,83.1,80,95.1c0,0-30.5-70.4-11.2-172.4c0,0,21.3,22.7,77.3,28c0,0,39.3,46,48,45.3c0,0-3.7-60.5-7.2-76.5
	c0,0,2-7-8-14s-13-31-3-48.5s10-46.5-51.5-113c0,0-50.5-57-115.5-82.5s-87.2-120.3-96.8-186.2C203.7,234.3,188,419.8,196,517.2z
	 M359,558.7c31.5,19.6,62.1,40.3,82.7,59.3c-6.7,0.7-70-18.7-70-18.7C359.7,580.3,359,558.7,359,558.7z"/>
<path id="glare" class="st2" d="M146.4,854.1c-195.3-195.3-195.3-511.8,0-707.1s511.8-195.3,707.1,0
	C682.1,446.2,441.2,676.8,146.4,854.1z"/>
</svg>
